<mxfile host="app.diagrams.net" modified="2024-04-17T13:04:07.934Z" agent="Mozilla/5.0 (Windows NT 10.0; Win64; x64) AppleWebKit/537.36 (KHTML, like Gecko) Chrome/123.0.0.0 Safari/537.36" version="24.2.5" etag="nwLUaNNuIVnzC8uxS0Km" type="github">
  <diagram name="PÃ¡gina-1" id="RCAHCqja-_G7N3IE-TQQ">
    <mxGraphModel>
      <root>
        <mxCell id="0" />
        <mxCell id="1" parent="0" />
      </root>
    </mxGraphModel>
  </diagram>
</mxfile>
